<svg xmlns="http://www.w3.org/2000/svg" viewBox="0 0 264 264"><defs><style>.cls-1{fill:#fff;}.cls-2{fill:#070a3b;}</style></defs><title>Asset 2</title><g id="Layer_2" data-name="Layer 2"><g id="bgeehcff"><g id="SvgjsG1314"><path class="cls-1" d="M132,0C59.22,0,0,59.21,0,132S59.22,264,132,264s132-59.21,132-132S204.78,0,132,0Zm0,262.66C60,262.66,1.34,204,1.34,132S60,1.34,132,1.34,262.66,60,262.66,132,204,262.66,132,262.66Z"/><path class="cls-1" d="M132,7.33A124.67,124.67,0,1,0,256.68,132,124.8,124.8,0,0,0,132,7.33Z"/></g><g id="SvgjsG1315"><path class="cls-2" d="M124.56,69.38a7.4,7.4,0,0,0-5.92,3.21,8.59,8.59,0,0,0-.87,7.35c.84,2.83,2.9,5.9,6.51,8.9v0c.25.21,1.5,1.36,2.92,2.7s3,2.8,4.15,3.91a.82.82,0,0,0,1.32,0c1.15-1.11,2.73-2.61,4.12-3.91s2.68-2.49,2.92-2.7c3.62-3,5.67-6.09,6.51-8.92a8.59,8.59,0,0,0-.84-7.35,7.46,7.46,0,0,0-5.95-3.21,11.39,11.39,0,0,0-7.42,2.7,11.68,11.68,0,0,0-7-2.7Zm.08,1.63c.12,0,.25,0,.38,0a10.26,10.26,0,0,1,6.35,2.67A.81.81,0,0,0,132,74H132a.83.83,0,0,0,.59-.28A10.06,10.06,0,0,1,139.36,71,5.8,5.8,0,0,1,144,73.5a6.94,6.94,0,0,1,.63,6c-.72,2.44-2.57,5.26-6,8.11-.39.33-1.57,1.43-3,2.77-1.22,1.14-2.56,2.43-3.66,3.48-1.1-1-2.47-2.34-3.69-3.48-1.43-1.34-2.61-2.44-3-2.77-3.42-2.85-5.25-5.67-6-8.11a6.94,6.94,0,0,1,.63-6A5.77,5.77,0,0,1,124.64,71Z"/><path class="cls-2" d="M155.22,54a3.74,3.74,0,0,0-1.27.23,4.23,4.23,0,0,0-2.51,5l2.95,15.61a3.52,3.52,0,0,0-3.56,2.73L149,85.22a18.25,18.25,0,0,1-2.39,4.94,23.1,23.1,0,0,0-2.82,6.35,31.09,31.09,0,0,0-.51,9.44l-2.54-.69a.82.82,0,0,0-1,.56l-2.06,7.65a.81.81,0,0,0,.58,1h0l5.77,1.55,15.21,4.07a.82.82,0,0,0,1-.59h0l2-7.63a.8.8,0,0,0-.56-1l-2.34-.64c.74-10.24,5.19-15.13,7.43-23.49.39-1.46.1-3.48-.46-6s-1.45-5.55-2.44-8.62c-2-6.13-4.39-12.54-5.54-15.86a3.28,3.28,0,0,0-1.86-2,3.62,3.62,0,0,0-1.3-.25Zm-15.05,56.58,19.4,5.18-.68,2.55-14.42-3.87-5-1.32Z"/><path class="cls-2" d="M108.77,54a3.46,3.46,0,0,0-1.27.25,3.29,3.29,0,0,0-1.88,2c-1.15,3.32-3.57,9.73-5.55,15.86-1,3.07-1.85,6.08-2.41,8.62s-.88,4.57-.49,6c2.24,8.36,6.69,13.25,7.43,23.5l-2.31.63a.82.82,0,0,0-.59,1h0l2.06,7.63a.82.82,0,0,0,1,.59h0L120,116l5.74-1.55a.83.83,0,0,0,.59-1h0l-2.06-7.65a.82.82,0,0,0-1-.56l-2.55.69a30.46,30.46,0,0,0-.5-9.44,22.79,22.79,0,0,0-2.83-6.35,18.15,18.15,0,0,1-2.36-5l-1.81-7.65a3.5,3.5,0,0,0-3.56-2.72l3-15.62a4.23,4.23,0,0,0-2.54-5,3.74,3.74,0,0,0-1.27-.23Zm15,56.58.69,2.54-5,1.32-14.42,3.87-.69-2.55Z"/></g><g id="SvgjsG1316"><path class="cls-2" d="M122.19,150v59h-9.52V170.81L95,209H87.13L69.52,170.9V209H60V150h9.19L91.1,196.43,113,150ZM182,201.49a10.49,10.49,0,0,0,5.4-1.52v7.59a9.59,9.59,0,0,1-6.41,1.93c-6,0-8.59-3.79-8.59-9.27V199c-2.7,6.41-8.52,11-18.38,11-11,0-21.74-6.49-21.74-19.38,0-10.45,7.67-16.18,15.34-17.45L134.83,150h37.84v8H147.56l11.88,21.48h-4.22c-7.66,0-13.65,4.39-13.65,11.13,0,7.33,6,11.37,13.23,11.37s14.33-4.21,14.33-12.89V173.93H184.8v7.59h-6.57V197c0,3.46,1.43,4.47,3.79,4.47ZM204.69,150v59h-9.27V150Z"/></g></g></g></svg>